<?xml version="1.0" encoding="UTF-8"?>
<!-- Generator: Adobe Illustrator 18.1.0, SVG Export Plug-In . SVG Version: 6.00 Build 0)  -->
<svg version="1.1" id="Layer_1" xmlns="http://www.w3.org/2000/svg" xmlns:xlink="http://www.w3.org/1999/xlink" x="0px" y="0px" viewBox="0 0 257.6 454.4" enable-background="new 0 0 257.6 454.4" xml:space="preserve">
<polygon fill="#FFFFFF" points="247.8,6.4 9.8,6.4 6,6.4 6,10.2 6,168.8 6,244.3 6,248.1 6,251.9 6,348.3 6,350.1 7.5,351.3   126.4,446.2 128.8,448.1 131.2,446.2 250.1,351.3 251.6,350.1 251.6,348.3 251.6,251.9 251.6,248.1 251.6,244.3 251.6,168.8   251.6,10.2 251.6,6.4 "/>
<polygon fill="#252F6B" points="9.8,348.3 128.8,443.2 247.8,348.3 247.8,248.1 9.8,248.1 "/>
<g>
	<path fill="#FFFFFF" d="M33.8,313.7h-7.5v3.7h6.1v3.1h-6.1v7.2h-3.6v-17.2h11.1V313.7z"/>
	<path fill="#FFFFFF" d="M46.8,322.9h-8.2c0,0.8,0.3,1.3,0.7,1.8c0.4,0.4,1,0.6,1.8,0.6c1.2,0,1.9-0.4,2.2-1.3l3.4,0.2   c-0.2,1.1-0.8,2.1-1.9,2.8c-1,0.7-2.2,1.1-3.6,1.1c-1.8,0-3.3-0.6-4.5-1.7c-1.1-1.1-1.7-2.6-1.7-4.5c0-1.9,0.6-3.4,1.7-4.5   s2.6-1.7,4.4-1.7c1.7,0,3.1,0.5,4.1,1.6c1,1.1,1.5,2.5,1.5,4.3V322.9z M41.1,318.2c-0.7,0-1.3,0.2-1.7,0.6c-0.4,0.4-0.7,1-0.7,1.8   h4.8c0-0.8-0.2-1.3-0.6-1.8C42.4,318.4,41.8,318.2,41.1,318.2z"/>
	<path fill="#FFFFFF" d="M53,309.9v7c0.7-0.8,1.8-1.3,3.3-1.3c1.7,0,3.1,0.6,4.2,1.7c1.1,1.1,1.6,2.6,1.6,4.5c0,1.9-0.5,3.4-1.6,4.5   c-1.1,1.1-2.5,1.7-4.2,1.7c-0.8,0-1.5-0.1-2.1-0.4c-0.6-0.3-1.1-0.6-1.4-1.1v1.2h-3.2v-17.9H53z M55.8,318.5c-0.8,0-1.5,0.3-2,0.8   c-0.5,0.5-0.8,1.3-0.8,2.2v0.5c0,1,0.3,1.7,0.8,2.2c0.5,0.5,1.2,0.8,2,0.8c0.9,0,1.6-0.3,2.1-0.9c0.5-0.6,0.8-1.4,0.8-2.4   c0-1-0.3-1.9-0.8-2.4C57.3,318.8,56.6,318.5,55.8,318.5z"/>
	<path fill="#FFFFFF" d="M74.7,310.3c1.7,0,3,0.4,3.9,1.3c0.9,0.9,1.4,2.1,1.4,3.6c0,1.3-0.3,2.4-0.8,3.4c-0.5,1-1.3,2-2.3,3l-2.8,3   h6v3.2H69.4V325l4.7-5.2c0.9-0.9,1.5-1.7,1.8-2.3c0.3-0.6,0.5-1.3,0.5-2.1c0-0.6-0.1-1.1-0.4-1.4c-0.3-0.3-0.7-0.5-1.2-0.5   c-1.2,0-1.8,0.8-1.8,2.4l-3.5-0.2c0-1.7,0.5-3,1.4-3.9C71.7,310.7,73,310.3,74.7,310.3z"/>
	<path fill="#FFFFFF" d="M88.7,310.3c2,0,3.5,0.8,4.7,2.3c1.2,1.6,1.8,3.7,1.8,6.5c0,2.8-0.6,5-1.8,6.5c-1.2,1.6-2.8,2.3-4.7,2.3   c-2,0-3.6-0.8-4.8-2.3c-1.2-1.6-1.8-3.7-1.8-6.5c0-2.8,0.6-5,1.8-6.5C85.2,311,86.8,310.3,88.7,310.3z M88.7,313.4   c-1.9,0-2.9,1.9-2.9,5.7c0,3.8,1,5.7,2.9,5.7c1.9,0,2.9-1.9,2.9-5.7C91.6,315.3,90.7,313.4,88.7,313.4z"/>
	<path fill="#FFFFFF" d="M103.7,327.7h-3.5V315l-2.2,1.5l-1.6-2.8l4.7-3.2h2.6V327.7z"/>
	<path fill="#FFFFFF" d="M108.8,311.6c1-0.9,2.4-1.3,4-1.3c1.6,0,3,0.4,4,1.3c1.1,0.9,1.6,2.1,1.6,3.5c0,1.5-0.6,2.6-1.7,3.4   c1.4,0.9,2.1,2.3,2.1,4.1c0,1.6-0.6,2.9-1.7,3.9c-1.1,1-2.6,1.5-4.3,1.5c-1.7,0-3.2-0.5-4.3-1.5c-1.1-1-1.7-2.3-1.7-3.9   c0-1.8,0.7-3.1,2.1-4.1c-1.1-0.8-1.6-1.9-1.6-3.4C107.3,313.6,107.8,312.5,108.8,311.6z M114.6,320.7c-0.5-0.4-1.1-0.6-1.8-0.6   c-0.7,0-1.3,0.2-1.8,0.6c-0.5,0.4-0.7,1-0.7,1.7s0.2,1.3,0.7,1.7c0.5,0.4,1.1,0.6,1.8,0.6c0.7,0,1.3-0.2,1.8-0.6   c0.5-0.4,0.7-1,0.7-1.7S115.1,321.2,114.6,320.7z M112.9,313.4c-0.6,0-1.1,0.2-1.5,0.5c-0.4,0.4-0.6,0.8-0.6,1.4   c0,0.6,0.2,1,0.6,1.4c0.4,0.3,0.9,0.5,1.5,0.5c0.6,0,1.1-0.2,1.5-0.5c0.4-0.3,0.6-0.8,0.6-1.4c0-0.6-0.2-1.1-0.6-1.4   C114,313.6,113.5,313.4,112.9,313.4z"/>
	<path fill="#FFFFFF" d="M133.5,323.3h-7.3v-3.1h7.3V323.3z"/>
	<path fill="#FFFFFF" d="M152.5,313.7H145v3.7h6.5v3.1H145v4.1h7.5v3.2h-11.1v-17.2h11.1V313.7z"/>
	<path fill="#FFFFFF" d="M161.8,315.6c1.4,0,2.5,0.4,3.4,1.3c0.9,0.9,1.3,2,1.3,3.6v7.3h-3.4v-6.6c0-0.8-0.2-1.3-0.6-1.8   c-0.4-0.4-0.9-0.6-1.5-0.6c-0.7,0-1.2,0.2-1.6,0.7c-0.4,0.4-0.6,1-0.6,1.7v6.6h-3.4v-11.9h3.2v1.2   C159.2,316.1,160.3,315.6,161.8,315.6z"/>
	<path fill="#FFFFFF" d="M180.7,322.9h-8.2c0,0.8,0.3,1.3,0.7,1.8c0.4,0.4,1,0.6,1.8,0.6c1.2,0,1.9-0.4,2.2-1.3l3.4,0.2   c-0.2,1.1-0.8,2.1-1.9,2.8c-1,0.7-2.2,1.1-3.6,1.1c-1.8,0-3.3-0.6-4.5-1.7c-1.1-1.1-1.7-2.6-1.7-4.5c0-1.9,0.6-3.4,1.7-4.5   s2.6-1.7,4.4-1.7c1.7,0,3.1,0.5,4.1,1.6c1,1.1,1.5,2.5,1.5,4.3V322.9z M175,318.2c-0.7,0-1.3,0.2-1.7,0.6c-0.4,0.4-0.7,1-0.7,1.8   h4.8c0-0.8-0.2-1.3-0.6-1.8C176.3,318.4,175.8,318.2,175,318.2z"/>
	<path fill="#FFFFFF" d="M193.4,310.3c1.7,0,3,0.4,3.9,1.3c0.9,0.9,1.4,2.1,1.4,3.6c0,1.3-0.3,2.4-0.8,3.4c-0.5,1-1.3,2-2.3,3   l-2.8,3h6v3.2h-10.6V325l4.7-5.2c0.9-0.9,1.5-1.7,1.8-2.3c0.3-0.6,0.5-1.3,0.5-2.1c0-0.6-0.1-1.1-0.4-1.4c-0.3-0.3-0.7-0.5-1.2-0.5   c-1.2,0-1.8,0.8-1.8,2.4l-3.5-0.2c0-1.7,0.5-3,1.4-3.9C190.4,310.7,191.7,310.3,193.4,310.3z"/>
	<path fill="#FFFFFF" d="M207.4,310.3c2,0,3.5,0.8,4.7,2.3c1.2,1.6,1.8,3.7,1.8,6.5c0,2.8-0.6,5-1.8,6.5s-2.8,2.3-4.7,2.3   c-2,0-3.6-0.8-4.8-2.3s-1.8-3.7-1.8-6.5c0-2.8,0.6-5,1.8-6.5C203.9,311,205.4,310.3,207.4,310.3z M207.4,313.4   c-2,0-2.9,1.9-2.9,5.7c0,3.8,1,5.7,2.9,5.7c1.9,0,2.9-1.9,2.9-5.7C210.3,315.3,209.4,313.4,207.4,313.4z"/>
	<path fill="#FFFFFF" d="M222.4,327.7h-3.5V315l-2.2,1.5l-1.6-2.8l4.7-3.2h2.6V327.7z"/>
	<path fill="#FFFFFF" d="M231.3,310.3c1.8,0,3.2,0.5,4.4,1.6c1.1,1.1,1.7,2.5,1.7,4.2c0,1.3-0.4,2.5-1.3,3.7l-5.6,8h-4.3l4.3-6   c-1.6-0.2-2.8-0.8-3.8-1.8c-1-1-1.5-2.4-1.5-3.9c0-1.7,0.6-3.1,1.7-4.2C228,310.8,229.5,310.3,231.3,310.3z M231.3,318.9   c0.9,0,1.5-0.3,2-0.9c0.3-0.4,0.5-1,0.5-1.8c0-0.8-0.2-1.5-0.7-2c-0.5-0.5-1-0.7-1.8-0.7s-1.3,0.2-1.8,0.7c-0.5,0.5-0.7,1.2-0.7,2   c0,0.8,0.2,1.5,0.7,2C229.9,318.6,230.5,318.9,231.3,318.9z"/>
</g>
<g>
	<path fill="#FFFFFF" d="M34.6,266.5c2.8,0,5.2,0.8,7.2,2.3c2,1.6,3.2,3.7,3.6,6.3l-4.9,0.4c-0.3-1.6-1-2.8-2.1-3.6   c-1.1-0.8-2.4-1.3-3.9-1.3c-2,0-3.6,0.7-4.8,2c-1.2,1.4-1.8,3.2-1.8,5.5c0,2.4,0.6,4.2,1.9,5.5c1.2,1.3,2.8,2,4.8,2   c1.6,0,2.9-0.4,3.9-1.2c1.1-0.8,1.7-2,2-3.6l4.9,0.4c-0.4,2.6-1.6,4.7-3.6,6.2c-2,1.5-4.4,2.3-7.1,2.3c-3.4,0-6.2-1-8.3-3.1   c-2.1-2.1-3.2-4.9-3.2-8.5c0-3.6,1.1-6.4,3.2-8.5C28.4,267.5,31.2,266.5,34.6,266.5z"/>
	<path fill="#FFFFFF" d="M63.4,270.9h-9.8v4.9h8.5v4h-8.5v5.4h9.9v4.1H48.9v-22.6h14.5V270.9z"/>
	<path fill="#FFFFFF" d="M80,289.4l-4.4-8.1h-3.8v8.1h-4.7v-22.6h9.7c2.2,0,4,0.6,5.3,1.9c1.3,1.3,2,3.1,2,5.3c0,1.6-0.3,2.9-1,4   c-0.6,1.1-1.5,1.9-2.7,2.5l4.8,8.9H80z M71.8,277.1h4.4c0.9,0,1.7-0.3,2.3-0.8c0.6-0.5,0.9-1.3,0.9-2.3c0-1-0.3-1.8-0.9-2.3   c-0.6-0.5-1.3-0.8-2.3-0.8h-4.4V277.1z"/>
	<path fill="#FFFFFF" d="M106.5,270.9h-7.6v18.5h-4.7v-18.5h-7.6v-4.1h19.8V270.9z"/>
	<path fill="#FFFFFF" d="M114,289.4h-4.7v-22.6h4.7V289.4z"/>
	<path fill="#FFFFFF" d="M133.1,270.9h-9.8v4.9h8v4.1h-8v9.5h-4.7v-22.6h14.5V270.9z"/>
	<path fill="#FFFFFF" d="M141,289.4h-4.7v-22.6h4.7V289.4z"/>
	<path fill="#FFFFFF" d="M156.3,266.5c2.8,0,5.2,0.8,7.2,2.3c2,1.6,3.2,3.7,3.6,6.3l-4.9,0.4c-0.3-1.6-1-2.8-2.1-3.6   c-1.1-0.8-2.4-1.3-3.9-1.3c-2,0-3.6,0.7-4.8,2c-1.2,1.4-1.8,3.2-1.8,5.5c0,2.4,0.6,4.2,1.9,5.5c1.2,1.3,2.8,2,4.8,2   c1.6,0,2.9-0.4,4-1.2c1.1-0.8,1.7-2,2-3.6l4.9,0.4c-0.4,2.6-1.6,4.7-3.6,6.2c-2,1.5-4.4,2.3-7.1,2.3c-3.4,0-6.2-1-8.3-3.1   c-2.1-2.1-3.2-4.9-3.2-8.5c0-3.6,1.1-6.4,3.2-8.5C150.1,267.5,152.9,266.5,156.3,266.5z"/>
	<path fill="#FFFFFF" d="M190.7,289.4h-5.1l-1.8-4.4h-9.4l-1.9,4.4h-5.1l9.7-22.6h3.9L190.7,289.4z M175.9,281.3h6.1L179,274   L175.9,281.3z"/>
	<path fill="#FFFFFF" d="M193.2,266.8h9.3c3.3,0,6,1,8.1,3c2.1,2,3.1,4.8,3.1,8.3s-1,6.2-3.1,8.3c-2.1,2-4.8,3-8.1,3h-9.3V266.8z    M197.9,270.8v14.6h4.7c2,0,3.6-0.6,4.8-1.9c1.2-1.3,1.8-3.1,1.8-5.4c0-2.4-0.6-4.2-1.8-5.4c-1.2-1.3-2.8-1.9-4.8-1.9H197.9z"/>
	<path fill="#FFFFFF" d="M237.5,289.4h-5.1l-1.8-4.4h-9.4l-1.9,4.4h-5.1l9.7-22.6h3.9L237.5,289.4z M222.8,281.3h6.1l-3.1-7.2   L222.8,281.3z"/>
</g>
<g>
	<g>
		<path fill="#FFFFFF" d="M122,373.6h-4.6v-12.2l-6.2,12h-3.1l-6.3-12v12.2h-4.7V351h4.1l8.4,15.6l8.3-15.6h4.1V373.6z"/>
		<path fill="#FFFFFF" d="M141.1,355.1h-9.8v4.9h8.5v4h-8.5v5.4h9.9v4.1h-14.6V351h14.5V355.1z"/>
		<path fill="#FFFFFF" d="M157,362.1l7,11.5h-5.4l-5-8.4l-5.1,8.4h-5.4l7-11.5l-6.6-11.1h5.4l4.7,8l4.7-8h5.4L157,362.1z"/>
	</g>
</g>
<polygon fill="#E31E26" points="9.8,10.2 9.8,168.8 9.8,248.1 247.8,248.1 247.8,168.8 247.8,10.2 "/>
<g>
	<g>
		<path fill="#FFFFFF" d="M67.4,43.5v3.4c0,6.2-2,11.2-6,15.1c-4,3.9-9.1,5.8-15.4,5.8c-6.7,0-12.3-2.2-16.7-6.5    c-4.4-4.4-6.6-9.8-6.6-16c0-6.3,2.2-11.7,6.5-16.1c4.4-4.4,9.8-6.6,16.3-6.6c8.1,0,15.2,4,18.9,10.1l-7.3,4.2    c-2.1-3.5-6.5-6-11.7-6c-4.2,0-7.6,1.4-10.3,4.1c-2.7,2.7-4,6.1-4,10.3c0,4.1,1.4,7.5,4,10.2c2.7,2.7,6.3,4,10.8,4    c6.6,0,11.1-3.1,12.7-8.3H45.6v-7.6H67.4z"/>
		<path fill="#FFFFFF" d="M80.3,41.1c1.4-4,5-6,9-6v8.9c-2.3-0.3-4.4,0.2-6.3,1.5c-1.8,1.3-2.7,3.4-2.7,6.4v14.8h-7.6V35.8h7.6V41.1    z"/>
		<path fill="#FFFFFF" d="M102.1,54.6c1.1,3.9,4,5.8,8.8,5.8c3,0,5.4-1.1,7-3.1l6.5,3.7c-3,4.4-7.6,6.6-13.5,6.6    c-5.2,0-9.3-1.6-12.4-4.7c-3.1-3.1-4.7-7-4.7-11.7c0-4.7,1.6-8.6,4.6-11.7c3-3.2,7-4.7,11.8-4.7c4.5,0,8.3,1.6,11.2,4.7    c3,3.2,4.5,7,4.5,11.7c0,1.1-0.1,2.1-0.3,3.3H102.1z M117.8,48.4c-0.9-4.2-4-6.3-7.7-6.3c-4.3,0-7.2,2.3-8.1,6.3H117.8z"/>
		<path fill="#FFFFFF" d="M154.7,35.8h8v31.1h-8v-3.7c-2.4,3-5.8,4.5-10.1,4.5c-4.2,0-7.7-1.6-10.7-4.7c-2.9-3.2-4.4-7.1-4.4-11.7    c0-4.6,1.5-8.4,4.4-11.6c3-3.2,6.5-4.8,10.7-4.8c4.3,0,7.7,1.5,10.1,4.5V35.8z M146.1,60.1c2.5,0,4.5-0.8,6.2-2.4    c1.7-1.7,2.5-3.8,2.5-6.3c0-2.5-0.8-4.7-2.5-6.3c-1.6-1.7-3.7-2.5-6.2-2.5c-2.5,0-4.5,0.8-6.2,2.5c-1.6,1.6-2.4,3.7-2.4,6.3    c0,2.5,0.8,4.7,2.4,6.3C141.5,59.3,143.6,60.1,146.1,60.1z"/>
		<path fill="#FFFFFF" d="M189,43.5h-7v12.9c0,3.4,2.4,3.4,7,3.2v7.3c-11,1.2-15-1.9-15-10.4V43.5h-5.4v-7.7h5.4v-6.3l8-2.4v8.7h7    V43.5z"/>
		<path fill="#FFFFFF" d="M44.7,78c4.2,0,7.7,1.4,10.6,4.2c2.9,2.8,4.3,6.3,4.3,10.4c0,4.1-1.4,7.6-4.3,10.4    c-2.9,2.8-6.4,4.2-10.6,4.2H37v14.3h-8.6V78H44.7z M44.7,99.2c3.7,0,6.3-2.9,6.3-6.6c0-3.8-2.7-6.6-6.3-6.6H37v13.2H44.7z"/>
		<path fill="#FFFFFF" d="M65.4,121.5V78.4h8v43.1H65.4z"/>
		<path fill="#FFFFFF" d="M105.6,90.4h8v31.1h-8v-3.7c-2.4,3-5.8,4.5-10.1,4.5c-4.2,0-7.7-1.6-10.7-4.7c-2.9-3.2-4.4-7.1-4.4-11.7    s1.5-8.4,4.4-11.6c3-3.2,6.5-4.8,10.7-4.8c4.3,0,7.7,1.5,10.1,4.5V90.4z M96.9,114.7c2.5,0,4.5-0.8,6.2-2.4    c1.7-1.7,2.5-3.8,2.5-6.3c0-2.5-0.8-4.7-2.5-6.3c-1.6-1.7-3.7-2.5-6.2-2.5c-2.5,0-4.5,0.8-6.2,2.5c-1.6,1.6-2.4,3.7-2.4,6.3    c0,2.5,0.8,4.7,2.4,6.3C92.4,113.9,94.5,114.7,96.9,114.7z"/>
		<path fill="#FFFFFF" d="M125.1,117.6c-3.1-3.2-4.7-7-4.7-11.7c0-4.7,1.6-8.5,4.7-11.7c3.2-3.2,7.1-4.7,11.7-4.7    c6,0,11.4,3.1,13.9,8l-6.9,4c-1.2-2.5-3.9-4.2-7.1-4.2c-4.8,0-8.3,3.5-8.3,8.5c0,2.4,0.8,4.5,2.4,6.1c1.6,1.6,3.5,2.4,6,2.4    c3.2,0,5.9-1.6,7.1-4.1l7,4c-2.7,4.9-8,8.1-14,8.1C132.2,122.3,128.3,120.8,125.1,117.6z"/>
		<path fill="#FFFFFF" d="M163.7,109.2c1.1,3.9,4,5.8,8.8,5.8c3,0,5.4-1.1,7-3.1l6.5,3.7c-3,4.4-7.6,6.6-13.5,6.6    c-5.2,0-9.3-1.6-12.4-4.7c-3.1-3.1-4.7-7-4.7-11.7c0-4.7,1.6-8.6,4.6-11.7c3-3.2,7-4.7,11.8-4.7c4.5,0,8.3,1.6,11.2,4.7    c3,3.2,4.5,7,4.5,11.7c0,1.1-0.1,2.1-0.3,3.3H163.7z M179.5,103c-0.9-4.2-4-6.3-7.7-6.3c-4.3,0-7.2,2.3-8.1,6.3H179.5z"/>
		<path fill="#FFFFFF" d="M54.7,134.8v7.8H43v33.5h-8.6v-33.5H22.8v-7.8H54.7z"/>
		<path fill="#FFFFFF" d="M68.1,177c-4.6,0-8.5-1.6-11.7-4.7c-3.2-3.2-4.7-7.1-4.7-11.7c0-4.6,1.6-8.4,4.7-11.6    c3.2-3.2,7.1-4.8,11.7-4.8c4.6,0,8.5,1.6,11.7,4.8c3.2,3.2,4.8,7,4.8,11.6c0,4.6-1.6,8.5-4.8,11.7C76.6,175.4,72.7,177,68.1,177z     M68.1,169.1c2.4,0,4.4-0.8,6-2.4c1.6-1.6,2.4-3.7,2.4-6.2c0-2.5-0.8-4.5-2.4-6.2c-1.6-1.6-3.6-2.4-6-2.4c-2.4,0-4.4,0.8-6,2.4    c-1.6,1.6-2.4,3.7-2.4,6.2c0,2.5,0.8,4.5,2.4,6.2C63.7,168.3,65.7,169.1,68.1,169.1z"/>
		<path fill="#FFFFFF" d="M36.1,233.3l-12.2-43.5h9l8.3,32.2l9.1-32.2h7.3l9.1,32.2l8.3-32.2h9L72,233.3h-9.8L54,204.5l-8.1,28.7    H36.1z"/>
		<path fill="#FFFFFF" d="M99.8,234.1c-4.6,0-8.5-1.6-11.7-4.7c-3.2-3.2-4.7-7.1-4.7-11.7c0-4.6,1.6-8.4,4.7-11.6    c3.2-3.2,7.1-4.8,11.7-4.8c4.6,0,8.5,1.6,11.7,4.8c3.2,3.2,4.8,7,4.8,11.6c0,4.6-1.6,8.5-4.8,11.7    C108.3,232.6,104.4,234.1,99.8,234.1z M99.8,226.3c2.4,0,4.4-0.8,6-2.4c1.6-1.6,2.4-3.7,2.4-6.2c0-2.5-0.8-4.5-2.4-6.2    c-1.6-1.6-3.6-2.4-6-2.4c-2.4,0-4.4,0.8-6,2.4c-1.6,1.6-2.4,3.7-2.4,6.2c0,2.5,0.8,4.5,2.4,6.2C95.4,225.5,97.4,226.3,99.8,226.3z    "/>
		<path fill="#FFFFFF" d="M129.9,207.5c1.5-4,5.2-6,9.4-6v8.9c-2.4-0.3-4.7,0.2-6.6,1.5c-1.9,1.3-2.9,3.4-2.9,6.4v14.8h-8v-31.1h8    V207.5z"/>
		<path fill="#FFFFFF" d="M173.9,233.3h-9.3l-11.3-14.1v14.1h-8v-43.5h8v26.1l10.7-13.7h9.6l-12.5,15.3L173.9,233.3z"/>
	</g>
	<g>
		<path fill="#FFFFFF" d="M176.8,227.7c0-3.9,3.1-7,7-7c4,0,7,3.1,7,7c0,4-3.1,7-7,7C180,234.6,176.8,231.6,176.8,227.7z     M189.6,227.6c0-3.4-2.4-5.9-5.8-5.9c-3.4,0-5.8,2.4-5.8,5.9c0,3.5,2.5,5.8,5.8,5.8C187.1,233.5,189.6,231.1,189.6,227.6z     M181.5,224.1h2.4c1.6,0,2.7,0.7,2.7,2.1v0c0,1-0.6,1.6-1.4,1.9l1.8,2.9h-1.6l-1.7-2.7H183v2.7h-1.5V224.1z M183.9,227.3    c0.8,0,1.2-0.3,1.2-1v0c0-0.7-0.4-1-1.2-1H183v2H183.9z"/>
	</g>
</g>
</svg>